<svg width="512" height="512" viewBox="0 0 512 512" fill="none" xmlns="http://www.w3.org/2000/svg"
    role="img" aria-labelledby="title desc">
    <title id="title">Mecha pilot profile portrait</title>
    <desc id="desc">A stylized mecha themed profile portrait with helmet and red armor accents.</desc>
    <defs>
        <linearGradient id="bg" x1="40" y1="28" x2="462" y2="484" gradientUnits="userSpaceOnUse">
            <stop offset="0" stop-color="#0b1320" />
            <stop offset="0.55" stop-color="#0a0f18" />
            <stop offset="1" stop-color="#03060c" />
        </linearGradient>
        <linearGradient id="armor" x1="70" y1="130" x2="430" y2="450" gradientUnits="userSpaceOnUse">
            <stop offset="0" stop-color="#c61f2d" />
            <stop offset="0.56" stop-color="#991b1b" />
            <stop offset="1" stop-color="#5d0e15" />
        </linearGradient>
        <linearGradient id="visor" x1="140" y1="190" x2="372" y2="250"
            gradientUnits="userSpaceOnUse">
            <stop offset="0" stop-color="#d6ecff" />
            <stop offset="1" stop-color="#7ba7d6" />
        </linearGradient>
        <radialGradient id="glow" cx="0" cy="0" r="1" gradientUnits="userSpaceOnUse"
            gradientTransform="translate(312 198) rotate(140) scale(170)">
            <stop stop-color="#ff7a7a" stop-opacity="0.7" />
            <stop offset="1" stop-color="#ff7a7a" stop-opacity="0" />
        </radialGradient>
        <clipPath id="frameCut">
            <path d="M64 142L112 96H354L388 128H448V344L408 382V432H160L126 396H64V142Z" />
        </clipPath>
    </defs>

    <rect width="512" height="512" fill="url(#bg)" />
    <circle cx="390" cy="132" r="120" fill="url(#glow)" />

    <g clip-path="url(#frameCut)">
        <path d="M58 136L108 88H360L396 124H454V350L412 390V438H154L120 402H58V136Z" fill="#2c313a" />
        <path d="M70 146L114 102H354L386 132H440V343L402 378V424H164L132 390H70V146Z"
            fill="url(#armor)" />

        <path d="M126 470L188 358H324L386 470H126Z" fill="#141a23" />
        <path d="M148 470L204 372H308L364 470H148Z" fill="#6a1017" />

        <ellipse cx="256" cy="236" rx="108" ry="124" fill="#303743" />
        <path
            d="M164 232C164 169 205 124 256 124C307 124 348 169 348 232V264C348 327 307 372 256 372C205 372 164 327 164 264V232Z"
            fill="#1a202b" />

        <path d="M186 168L232 126H338L362 150V224L336 248H184L164 228V194L186 168Z" fill="#2b3442" />
        <path d="M194 176L236 136H332L354 156V218L330 240H190L172 222V198L194 176Z" fill="#111722" />

        <path d="M206 196H328L338 206V232L326 242H204L192 232V208L206 196Z" fill="url(#visor)" />
        <path d="M210 200H324L330 206V222L322 228H210L202 222V208L210 200Z" fill="#d6ebff"
            fill-opacity="0.22" />

        <rect x="232" y="246" width="48" height="20" rx="8" fill="#101722" />
        <rect x="238" y="250" width="36" height="12" rx="6" fill="#7da9d8" fill-opacity="0.4" />

        <path d="M168 286L184 262H206L220 286L198 318H184L168 286Z" fill="#962029" />
        <path d="M344 286L328 262H306L292 286L314 318H328L344 286Z" fill="#962029" />

        <rect x="88" y="156" width="18" height="200" rx="6" fill="#6e7684" />
        <rect x="406" y="156" width="18" height="200" rx="6" fill="#6e7684" />

        <path d="M98 176H126" stroke="#f3f5f8" stroke-width="3" stroke-linecap="round" />
        <path d="M98 204H122" stroke="#f3f5f8" stroke-width="3" stroke-linecap="round" />
        <path d="M410 176H382" stroke="#f3f5f8" stroke-width="3" stroke-linecap="round" />
        <path d="M410 204H386" stroke="#f3f5f8" stroke-width="3" stroke-linecap="round" />
    </g>

    <path d="M69 146L113 102H354L386 132H440V343L402 378V424H165L132 390H69V146Z" stroke="#c3c8d0"
        stroke-opacity="0.55" stroke-width="4" />
</svg>